<svg width="18" height="18" viewBox="0 0 18 18" fill="none" xmlns="http://www.w3.org/2000/svg">
<g clip-path="url(#clip0_155_1638)">
<path fill-rule="evenodd" clip-rule="evenodd" d="M16.1356 8.95696C16.1356 12.9375 12.9087 16.1643 8.92821 16.1643C4.94769 16.1643 1.72085 12.9375 1.72085 8.95696C1.72085 4.97644 4.94769 1.74959 8.92821 1.74959C12.9087 1.74959 16.1356 4.97644 16.1356 8.95696ZM17.1652 8.95696C17.1652 13.5061 13.4774 17.1939 8.92821 17.1939C4.37905 17.1939 0.691223 13.5061 0.691223 8.95696C0.691223 4.4078 4.37905 0.719971 8.92821 0.719971C13.4774 0.719971 17.1652 4.4078 17.1652 8.95696ZM12.0171 8.95687C12.0171 10.6628 10.6341 12.0457 8.92821 12.0457C7.22227 12.0457 5.83933 10.6628 5.83933 8.95687C5.83933 7.25093 7.22227 5.868 8.92821 5.868C10.6341 5.868 12.0171 7.25093 12.0171 8.95687ZM13.0467 8.95687C13.0467 11.2314 11.2028 13.0754 8.92821 13.0754C6.65362 13.0754 4.80971 11.2314 4.80971 8.95687C4.80971 6.68229 6.65362 4.83837 8.92821 4.83837C11.2028 4.83837 13.0467 6.68229 13.0467 8.95687Z" fill="#191414"/>
</g>
<defs>
<clipPath id="clip0_155_1638">
<rect width="16.474" height="16.474" fill="white" transform="translate(0.691223 0.719971)"/>
</clipPath>
</defs>
</svg>
