<svg width="13" height="21" viewBox="0 0 13 21" fill="none" xmlns="http://www.w3.org/2000/svg">
<path fill-rule="evenodd" clip-rule="evenodd" d="M5.70246 12.3294V19.3627C5.70246 20.0636 6.5357 20.4302 7.05235 19.9566L11.8857 15.5261C12.234 15.2067 12.234 14.6576 11.8857 14.3382L7.70017 10.5016L11.8857 6.66497C12.234 6.34558 12.234 5.79648 11.8857 5.47709L7.05235 1.04653C6.5357 0.572952 5.70246 0.939542 5.70246 1.64047V8.67374L1.77597 5.07431C1.44802 4.7738 0.938455 4.79583 0.637846 5.12387C0.337189 5.45191 0.359363 5.96129 0.687308 6.26219L5.31222 10.5016L0.687308 14.741C0.359363 15.0419 0.337189 15.5513 0.637846 15.8793C0.938455 16.2073 1.44802 16.2294 1.77597 15.9289L5.70246 12.3294ZM7.31357 8.6706L10.1492 6.07103L7.31357 3.47185V8.6706ZM10.1492 14.9321L7.31357 17.5317V12.333L10.1492 14.9321Z" fill="#1DB954"/>
</svg>
