<svg width="21" height="23" viewBox="0 0 21 23" fill="none" xmlns="http://www.w3.org/2000/svg">
<path fill-rule="evenodd" clip-rule="evenodd" d="M14.8959 21.6814C16.4367 21.6814 17.6858 20.4323 17.6858 18.8915C17.6858 17.3507 16.4367 16.1016 14.8959 16.1016C13.355 16.1016 12.1059 17.3507 12.1059 18.8915C12.1059 20.4323 13.355 21.6814 14.8959 21.6814ZM14.8957 20.5655C15.8202 20.5655 16.5696 19.816 16.5696 18.8915C16.5696 17.967 15.8202 17.2176 14.8957 17.2176C13.9712 17.2176 13.2217 17.967 13.2217 18.8915C13.2217 19.816 13.9712 20.5655 14.8957 20.5655Z" fill="#47464B"/>
<path d="M16.7558 10.6948H17.6858V19.4134L16.7558 19.9946V10.6948Z" fill="#47464B"/>
<path d="M17.2207 11.6247L17.6858 10.6947L20.1513 13.566L19.5467 14.169L17.2207 11.6247Z" fill="#47464B"/>
<path d="M14.8959 14.6188C13.3459 12.9857 11.7959 12.4413 12.8292 10.8082C14.3792 8.08626 14.8959 7.48485 14.8959 5.90874C14.8959 2.5663 12.4076 0.929932 9.7293 0.929932C7.05098 0.929932 4.56273 2.5663 4.56273 5.90874C4.56273 7.64416 6.20832 9.70461 7.14602 10.8082C10.246 14.0744 1.46279 16.252 0.946136 18.4295L0.946136 22.7845" stroke="#47464B" stroke-width="0.697487"/>
</svg>
