<svg width="18" height="19" viewBox="0 0 18 19" fill="none" xmlns="http://www.w3.org/2000/svg">
<g clip-path="url(#clip0_158_1685)">
<path fill-rule="evenodd" clip-rule="evenodd" d="M8.83483 17.2152C13.1043 17.2152 16.5653 13.7542 16.5653 9.48473C16.5653 5.21531 13.1043 1.75426 8.83483 1.75426C4.56541 1.75426 1.10435 5.21531 1.10435 9.48473C1.10435 13.7542 4.56541 17.2152 8.83483 17.2152ZM8.83483 18.3196C13.7142 18.3196 17.6697 14.3641 17.6697 9.48473C17.6697 4.60539 13.7142 0.649902 8.83483 0.649902C3.95549 0.649902 0 4.60539 0 9.48473C0 14.3641 3.95549 18.3196 8.83483 18.3196Z" fill="#47464B"/>
</g>
<rect x="3.21266" y="8.68164" width="11.2443" height="0.803166" fill="#47464B"/>
<defs>
<clipPath id="clip0_158_1685">
<rect width="17.6697" height="17.6697" fill="white" transform="translate(0 0.649902)"/>
</clipPath>
</defs>
</svg>
