<svg width="22" height="23" viewBox="0 0 22 23" fill="none" xmlns="http://www.w3.org/2000/svg">
<path d="M12.5316 5.05681C12.5316 2.33334 10.5041 1 8.32181 1C6.13948 1 4.11202 2.33334 4.11202 5.05681C4.11202 6.47086 5.45286 8.14974 6.21692 9.04892C8.74279 11.7103 1.58614 13.4846 1.16516 15.2589L1.16516 18.8074" stroke="#47464B" stroke-width="0.568322"/>
<path d="M16.152 12.8377C17.415 10.6199 17.836 10.1299 17.836 8.84562C17.836 6.12215 15.8085 4.78882 13.6262 4.78882C11.4438 4.78882 9.41637 6.12215 9.41637 8.84562C9.41637 10.2597 10.7572 11.9386 11.5213 12.8377C14.0471 15.4992 6.89049 17.2734 6.46951 19.0477L6.46951 22.5963" stroke="#47464B" stroke-width="0.568322"/>
<path d="M21.5506 22.9751L21.6248 19.3249C20.7724 17.4743 13.7687 15.9027 15.9989 12.9368L16.4924 12.3665" stroke="#47464B" stroke-width="0.580414"/>
</svg>
