<svg width="17" height="17" viewBox="0 0 17 17" fill="none" xmlns="http://www.w3.org/2000/svg">
<path d="M10 9V16.1978" stroke="#47464B" stroke-width="1.2"/>
<path d="M1 9L1 16.1978" stroke="#47464B" stroke-width="1.2"/>
<path d="M10 0V7.19782" stroke="#47464B" stroke-width="1.2"/>
<path d="M6.6001 0L6.6 7.21022" stroke="#47464B" stroke-width="1.2"/>
<path d="M15.6001 9L15.6 16.2102" stroke="#47464B" stroke-width="1.2"/>
<path d="M6.6001 9L6.6 16.2102" stroke="#47464B" stroke-width="1.2"/>
<path d="M15.6001 0L15.6 7.21022" stroke="#47464B" stroke-width="1.2"/>
<line x1="7" y1="0.6" x2="1" y2="0.6" stroke="#47464B" stroke-width="1.2"/>
<line x1="16" y1="9.6" x2="10" y2="9.6" stroke="#47464B" stroke-width="1.2"/>
<line x1="7" y1="9.6" x2="1" y2="9.6" stroke="#47464B" stroke-width="1.2"/>
<path d="M1 0L1 7.19782" stroke="#191414" stroke-width="1.2"/>
<line x1="16" y1="0.6" x2="10" y2="0.6" stroke="#47464B" stroke-width="1.2"/>
<line x1="7" y1="6.6" x2="1" y2="6.6" stroke="#47464B" stroke-width="1.2"/>
<line x1="16" y1="15.6" x2="10" y2="15.6" stroke="#47464B" stroke-width="1.2"/>
<line x1="7" y1="15.6" x2="1" y2="15.6" stroke="#47464B" stroke-width="1.2"/>
<line x1="16" y1="6.6" x2="10" y2="6.6" stroke="#47464B" stroke-width="1.2"/>
</svg>
