<svg width="19" height="19" viewBox="0 0 19 19" fill="none" xmlns="http://www.w3.org/2000/svg">
<path d="M3.49617 5.78701C4.91805 2.54495 8.44608 0.71785 11.8697 1.63132C15.6623 2.64323 17.8906 6.63501 16.8468 10.5472C15.803 14.4594 11.8823 16.8106 8.08969 15.7987C6.24344 15.3061 4.71548 14.0903 3.7875 12.4283C3.65111 12.184 3.34598 12.1026 3.10599 12.2465C2.866 12.3904 2.78203 12.7052 2.91883 12.9502C3.97616 14.8439 5.71997 16.2314 7.82442 16.7929C12.1493 17.9468 16.6203 15.2657 17.8106 10.8044C19.0009 6.34309 16.4599 1.79105 12.135 0.63712C8.17801 -0.41865 4.09875 1.73593 2.5217 5.52701L0.919555 5.09954L2.01511 9.11926L4.96752 6.17958L3.49617 5.78701Z" fill="#191414"/>
<rect x="9.11182" y="3.31348" width="0.828359" height="5.38434" rx="0.414179" fill="#191414"/>
<rect x="9.11182" y="8.43506" width="0.82836" height="5.17725" rx="0.41418" transform="rotate(-43.0915 9.11182 8.43506)" fill="#191414"/>
</svg>
