<svg width="23" height="21" viewBox="0 0 23 21" fill="none" xmlns="http://www.w3.org/2000/svg">
<path fill-rule="evenodd" clip-rule="evenodd" d="M21.0157 10.8719C21.0157 14.3016 19.4041 17.4741 16.686 19.5801C16.3375 19.8501 16.2817 20.3418 16.5614 20.6783C16.841 21.0147 17.3502 21.0686 17.6987 20.7986C20.7955 18.3991 22.6338 14.7805 22.6338 10.8719C22.6338 6.97334 20.8049 3.36301 17.7216 0.963068C17.3738 0.69231 16.8644 0.745087 16.584 1.08095C16.3036 1.41681 16.3582 1.90858 16.7061 2.17934C19.4124 4.28579 21.0157 7.45098 21.0157 10.8719ZM1.93225 10.872C1.93225 14.3017 3.54385 17.4741 6.26195 19.5802C6.61043 19.8502 6.66622 20.3418 6.38657 20.6783C6.10691 21.0148 5.59771 21.0686 5.24923 20.7986C2.15242 18.3991 0.314178 14.7805 0.314178 10.872C0.314178 6.97339 2.14298 3.36305 5.22632 0.963112C5.57418 0.692353 6.08351 0.745131 6.36393 1.08099C6.64436 1.41686 6.5897 1.90862 6.24184 2.17938C3.53557 4.28583 1.93225 7.45103 1.93225 10.872ZM8.87369 16.2457C7.23002 14.9538 6.25817 13.0235 6.25817 10.9378C6.25817 8.85215 7.23002 6.92177 8.87369 5.62993C9.19072 5.38077 9.23852 4.93064 8.98045 4.62454C8.72238 4.31844 8.25618 4.27229 7.93915 4.52146C5.95372 6.0819 4.77783 8.41757 4.77783 10.9378C4.77783 13.458 5.95372 15.7937 7.93915 17.3542C8.25618 17.6033 8.72238 17.5572 8.98045 17.2511C9.23852 16.945 9.19072 16.4948 8.87369 16.2457ZM11.4733 12.6797C12.4946 12.6797 13.3225 11.8803 13.3225 10.8942C13.3225 9.90817 12.4946 9.10879 11.4733 9.10879C10.452 9.10879 9.62408 9.90817 9.62408 10.8942C9.62408 11.8803 10.452 12.6797 11.4733 12.6797ZM13.978 16.2457C15.6217 14.9538 16.5935 13.0235 16.5935 10.9378C16.5935 8.85215 15.6217 6.92177 13.978 5.62993C13.661 5.38077 13.6132 4.93064 13.8713 4.62454C14.1293 4.31844 14.5955 4.27229 14.9126 4.52146C16.898 6.0819 18.0739 8.41757 18.0739 10.9378C18.0739 13.458 16.898 15.7937 14.9126 17.3542C14.5955 17.6033 14.1293 17.5572 13.8713 17.2511C13.6132 16.945 13.661 16.4948 13.978 16.2457Z" fill="#47464B"/>
</svg>
