<svg width="17" height="15" viewBox="0 0 17 15" fill="none" xmlns="http://www.w3.org/2000/svg">
<path d="M13.8713 0.0625L13.1727 0.880101C14.8625 2.44672 15.9266 4.67771 15.9266 7.1573C15.9266 9.63689 14.8615 11.8679 13.1727 13.4345L13.8703 14.2521C14.8563 13.3519 15.6438 12.2561 16.1827 11.0346C16.7215 9.81307 16.9999 8.49264 17 7.15754C17.0001 5.82244 16.7219 4.50197 16.1833 3.28036C15.6446 2.05876 14.8572 0.962835 13.8713 0.0625V0.0625ZM11.4368 2.91285L10.7392 3.73045C11.1943 4.17774 11.5557 4.71121 11.8024 5.2997C12.0491 5.8882 12.1761 6.51995 12.176 7.15806C12.1759 7.79618 12.0487 8.42788 11.8019 9.0163C11.555 9.60472 11.1934 10.1381 10.7381 10.5852L11.4357 11.4028C12.5501 10.3313 13.2477 8.82679 13.2477 7.15837C13.2477 5.48995 12.5512 3.98441 11.4368 2.91285V2.91285ZM0 3.94262V10.372H3.00466L8.57248 13.5867V0.727939L3.00466 3.94262H0ZM7.50092 2.58388V11.7307L3.29183 9.30042H1.07156V5.01418H3.29183L7.50092 2.58388Z" fill="#B2B2B2"/>
</svg>
