<svg width="17" height="12" viewBox="0 0 17 12" fill="none" xmlns="http://www.w3.org/2000/svg">
<path d="M4.58406 4.22973L5.31632 3.39667C4.16563 2.04295 2.49191 1.31403 0.818184 1.31403V2.35535C2.17808 2.35535 3.53798 2.98014 4.47945 4.02147L4.58406 4.22973ZM12.4296 9.12394C11.1743 9.12394 10.0237 8.60328 9.08219 7.77023L8.45455 8.60328C9.50062 9.64461 10.9651 10.1653 12.4296 10.1653V11.7272L16.0909 9.64461L12.4296 7.56196V9.12394ZM12.4296 2.87601V4.43799L16.0909 2.35535L12.4296 0.272705V1.83469C10.7559 1.83469 9.08219 2.56361 8.03612 3.91733L4.47945 7.97849C3.53798 9.01981 2.17808 9.64461 0.818184 9.64461V10.6859C2.49191 10.6859 4.16563 9.957 5.21171 8.60328L8.76837 4.54213C9.70984 3.5008 11.0697 2.87601 12.4296 2.87601Z" fill="#191414"/>
</svg>
